<?xml version="1.0" standalone="no"?>
<!DOCTYPE svg PUBLIC "-//W3C//DTD SVG 20010904//EN"
 "http://www.w3.org/TR/2001/REC-SVG-20010904/DTD/svg10.dtd">
<svg version="1.0" xmlns="http://www.w3.org/2000/svg"
 width="694.000000pt" height="980.000000pt" viewBox="0 0 694.000000 980.000000"
 preserveAspectRatio="xMidYMid meet">

<g transform="translate(0.000000,980.000000) scale(0.100000,-0.100000)"
fill="#ffffff" stroke="none" opacity="20%">
<path d="M3250 9793 c-210 -20 -269 -27 -369 -44 -498 -86 -999 -296 -1414
-593 -174 -125 -257 -195 -438 -376 -304 -303 -484 -553 -669 -925 -174 -353
-273 -679 -327 -1085 -26 -193 -26 -783 0 -1020 84 -766 334 -1574 732 -2370
527 -1054 1430 -2254 2339 -3112 261 -246 326 -286 416 -259 50 15 109 62 294
236 642 603 1339 1443 1832 2210 720 1118 1157 2259 1260 3295 23 226 26 893
6 1040 -53 368 -163 724 -332 1065 -180 365 -380 645 -660 925 -595 596 -1341
938 -2205 1010 -111 9 -384 11 -465 3z m515 -418 c738 -83 1353 -374 1861
-880 456 -455 745 -1006 853 -1625 38 -220 45 -311 45 -585 0 -285 -13 -440
-59 -735 -199 -1288 -895 -2673 -2019 -4020 -369 -443 -895 -999 -958 -1015
-41 -11 -79 18 -239 182 -1077 1104 -1857 2224 -2336 3353 -395 932 -567 1883
-478 2647 116 991 719 1866 1615 2341 316 167 744 299 1115 341 120 14 461 12
600 -4z"/>
<path d="M3200 8563 c-316 -50 -623 -159 -877 -312 -171 -102 -274 -181 -417
-321 -332 -324 -543 -711 -637 -1174 -39 -194 -42 -598 -5 -829 55 -339 244
-744 480 -1025 88 -106 275 -285 372 -359 305 -227 646 -369 1039 -430 154
-24 508 -24 660 1 705 112 1302 540 1643 1176 97 180 184 428 216 610 39 227
44 601 11 795 -111 645 -505 1227 -1046 1550 -393 233 -760 328 -1259 324 -85
-1 -166 -4 -180 -6z m555 -423 c420 -68 804 -277 1082 -590 205 -231 369 -548
428 -829 33 -158 44 -421 25 -612 -13 -136 -34 -229 -81 -366 -100 -289 -248
-516 -488 -745 -229 -220 -496 -368 -821 -456 -93 -25 -102 -26 -420 -27 -283
0 -335 2 -405 19 -544 127 -1034 524 -1270 1029 -52 113 -107 274 -129 381
-51 246 -40 648 24 870 144 494 461 889 910 1134 208 113 482 196 695 210 116
8 348 -1 450 -18z"/>
<path d="M3376 7727 c-87 -49 -122 -131 -95 -224 26 -93 134 -166 222 -149 73
14 149 93 168 174 33 147 -159 277 -295 199z"/>
<path d="M3360 6906 c-166 -74 -359 -176 -411 -217 -73 -59 -91 -91 -86 -162
10 -154 166 -234 318 -162 32 16 62 25 66 21 5 -4 9 -250 11 -547 l4 -539
-112 0 c-175 0 -230 -23 -271 -114 -37 -82 -22 -143 57 -234 l46 -52 487 0
488 0 46 48 c59 64 77 101 77 160 0 69 -34 130 -91 162 -40 22 -57 25 -176 28
l-132 4 -4 731 c-2 540 -6 742 -15 769 -21 63 -139 151 -198 147 -5 0 -52 -19
-104 -43z"/>
</g>
</svg>
