<svg version="1.0" xmlns="http://www.w3.org/2000/svg" width="100" height="100" viewBox="0 0 260.000000 300.000000" preserveAspectRatio="xMidYMid meet" opacity="70%">
    <g transform="translate(0.000000,300.000000) scale(0.100000,-0.100000)" fill="#555555" stroke="#222222" stroke-width="70">
        <path d="M60 2485 l0 -515 790 0 790 0 0 368 c1 202 3 433 6 515 l6 147 -796 0 -796 0 0 -515z"/>
        <path d="M1710 2677 l0 -144 126 -6 c141 -6 173 -19 185 -73 4 -16 7 -253 8 -526 l1 -498 -150 0 c-82 0 -150 -3 -150 -8 0 -4 97 -104 215 -222 l215 -215 215 215 c118 118 215 218 215 222 0 5 -61 8 -135 8 l-134 0 -3 593 c-3 658 0 625 -72 705 -20 22 -60 50 -89 63 -48 22 -68 24 -249 27 l-198 4 0 -145z"/>
        <path d="M370 1665 l0 -235 -150 0 c-82 0 -150 -3 -150 -8 0 -4 97 -104 215 -222 l215 -215 223 223 222 222 -143 0 -142 0 0 235 0 235 -145 0 -145 0 0 -235z"/>
        <path d="M195 886 c-90 -43 -161 -140 -186 -257 -15 -71 -6 -191 21 -261 27 -73 100 -154 165 -184 48 -23 58 -24 315 -24 l265 0 51 30 c60 34 104 86 141 167 23 48 28 76 31 161 4 88 1 112 -18 165 -28 77 -67 135 -116 172 -66 51 -89 54 -364 54 -248 1 -256 0 -305 -23z"/>
        <path d="M1780 535 l0 -375 375 0 375 0 -2 373 -3 372 -372 3 -373 2 0 -375z"/>
    </g>
</svg>
